<?xml version="1.0" encoding="iso-8859-1"?>
<!-- Generator: Adobe Illustrator 19.0.0, SVG Export Plug-In . SVG Version: 6.00 Build 0)  -->
<svg class = "svg__percentage" xmlns="http://www.w3.org/2000/svg" xmlns:xlink="http://www.w3.org/1999/xlink" version="1.1" id="Capa_1" x="0px" y="0px" viewBox="0 0 512 512" style="enable-background:new 0 0 512 512;" xml:space="preserve" width="512px" height="512px">
<g>

		<path d="M308.288,147.725c-2.859-2.375-6.038-3.566-9.544-3.566c-4.521,0-7.773,1.921-9.762,5.76l-97.641,199.936    c-0.725,1.83-1.085,3.385-1.085,4.662c0,3.107,1.243,5.896,3.736,8.365c2.49,2.468,5.579,3.702,9.27,3.702    c5.425,0,8.952-2.014,10.581-6.034l97.65-199.114c0.72-1.461,1.084-3.107,1.084-4.936    C312.577,153.031,311.146,150.104,308.288,147.725z" fill="#D80027"/>

		<path d="M217.653,163.632c-6.874-5.665-16.271-8.502-28.193-8.502c-11.924,0-21.285,2.837-28.088,8.502    c-6.803,5.67-10.203,14.63-10.203,26.878v39.768c0,12.252,3.399,21.212,10.203,26.878c6.801,5.67,16.164,8.502,28.088,8.502    c11.922,0,21.32-2.833,28.193-8.502c6.874-5.665,10.31-14.625,10.31-26.878V190.51    C227.963,178.262,224.526,169.302,217.653,163.632z M205.199,230.278c0,9.873-5.259,14.81-15.77,14.81    c-10.332,0-15.494-4.937-15.494-14.81V190.51c0-9.874,5.162-14.81,15.494-14.81c10.511,0,15.77,4.936,15.77,14.81V230.278z" fill="#D80027"/>

		<path d="M340.248,254.413c-6.874-5.666-16.271-8.503-28.193-8.503s-21.285,2.837-28.088,8.503    c-6.803,5.67-10.203,14.63-10.203,26.878v39.768c0,23.587,12.754,35.38,38.258,35.38c11.758,0,21.119-2.833,28.088-8.502    c6.964-5.666,10.447-14.626,10.447-26.878V281.29C350.558,269.044,347.122,260.083,340.248,254.413z M327.794,321.058    c0,9.874-5.257,14.81-15.77,14.81c-10.332,0-15.494-4.937-15.494-14.81V281.29c0-9.874,5.162-14.81,15.494-14.81    c10.513,0,15.77,4.937,15.77,14.81V321.058z" fill="#D80027"/>

		<path d="M437.019,74.981C388.667,26.629,324.38,0,256,0S123.332,26.629,74.98,74.981C26.628,123.333,0,187.621,0,256    s26.628,132.667,74.98,181.019C123.332,485.371,187.619,512,256,512s132.668-26.628,181.019-74.98S512,324.38,512,256    S485.371,123.333,437.019,74.981z M415.754,415.755c-42.672,42.672-99.408,66.173-159.755,66.173s-117.083-23.501-159.754-66.173    C53.572,373.083,30.073,316.348,30.073,256c0-60.348,23.5-117.083,66.173-159.755C138.917,53.574,195.653,30.073,256,30.073    s117.083,23.501,159.755,66.173c42.672,42.672,66.173,99.407,66.173,159.755C481.927,316.348,458.427,373.083,415.754,415.755z" fill="#D80027"/>
</g>

</svg>
