<?xml version="1.0" encoding="iso-8859-1"?>
<!-- Generator: Adobe Illustrator 19.0.0, SVG Export Plug-In . SVG Version: 6.00 Build 0)  -->
<svg class = "svg__fence" xmlns="http://www.w3.org/2000/svg" xmlns:xlink="http://www.w3.org/1999/xlink" version="1.1" id="Layer_1" x="0px" y="0px" viewBox="0 0 512.002 512.002" style="enable-background:new 0 0 512.002 512.002;" xml:space="preserve" width="512px" height="512px">
<g>
		<path d="M256.315,245.119c-0.026,0-0.054,0-0.08,0h-0.107c-5.523,0-10,4.477-10,10s4.477,10,10,10l0.264-0.001    c5.523-0.043,9.964-4.556,9.921-10.078C266.269,249.544,261.8,245.119,256.315,245.119z" fill="#D80027"/>

		<path d="M511.479,498.813l-18.161-54.001c-1.369-4.071-5.184-6.813-9.479-6.813H464V93.596c13.842-9.13,23-24.81,23-42.596    c0-28.122-22.878-51-51-51s-51,22.878-51,51c0,17.786,9.158,33.466,23,42.596v9.885c-4.534,66.814-51.662,122.661-117.727,137.796    c-5.384,1.233-8.748,6.597-7.515,11.98c1.061,4.632,5.18,7.77,9.739,7.77c0.739,0,1.49-0.083,2.242-0.255    c37.379-8.563,71.299-29.809,95.511-59.823c6.775-8.398,12.705-17.4,17.75-26.852V438h-19.839c-4.294,0-8.109,2.742-9.479,6.813    l-18.161,54.001c-1.026,3.051-0.521,6.41,1.358,9.024c1.878,2.614,4.901,4.164,8.12,4.164h132c3.219,0,6.242-1.55,8.12-4.164    C512,505.223,512.505,501.865,511.479,498.813z M405,51c0-17.093,13.907-31,31-31c17.093,0,31,13.907,31,31s-13.907,31-31,31    C418.908,82,405,68.093,405,51z M444,101.368V438h-16c0,0,0.1-335.737,0.143-336.607C430.706,101.791,433.33,102,436,102    C438.722,102,441.393,101.78,444,101.368z M383.914,492.001L395.349,458h81.303l11.435,34.001H383.914z" fill="#D80027"/>

		<path d="M224.493,241.829c-68.07-14.381-117.952-74.193-120.492-143.406v-4.827c13.842-9.13,23-24.81,23-42.596    c0-28.122-22.878-51-51-51s-51,22.878-51,51c0,17.786,9.158,33.466,23,42.596V438H28.162c-4.294,0-8.109,2.742-9.479,6.813    l-18.161,54c-1.026,3.051-0.521,6.41,1.358,9.024c1.878,2.614,4.901,4.164,8.12,4.164h132c3.219,0,6.242-1.55,8.12-4.164    c1.879-2.614,2.384-5.973,1.358-9.024l-18.161-54.001c-1.369-4.071-5.184-6.813-9.479-6.813h-19.838V173.621    c5.316,10.032,11.629,19.565,18.891,28.418c24.801,30.239,59.416,51.319,97.467,59.359c0.697,0.147,1.392,0.218,2.077,0.218    c4.625,0,8.779-3.229,9.774-7.935C233.352,248.277,229.896,242.971,224.493,241.829z M116.652,458l11.435,34.001H23.915    L35.349,458H116.652z M68.001,438V101.368c2.608,0.412,5.279,0.632,8,0.632c2.722,0,5.393-0.22,8-0.632V438H68.001z M76.001,82    c-17.094,0-31-13.907-31-31s13.907-31,31-31s31,13.907,31,31S93.094,82,76.001,82z" fill="#D80027"/>

</g>
</svg>
