<?xml version="1.0" encoding="iso-8859-1"?>
<svg xmlns="http://www.w3.org/2000/svg" xmlns:xlink="http://www.w3.org/1999/xlink" version="1.1" viewBox="0 0 463 463" enable-background="new 0 0 463 463" width="512px" height="512px">
  <g>
    <path d="m362.453,52.598c-2.942-2.965-6.85-4.598-11.007-4.598h-0.446v-0.5c0-17.369-14.131-31.5-31.5-31.5-4.503,0-8.885,0.97-12.945,2.84-7.284-6.955-16.84-10.84-27.055-10.84-5.119,0-10.106,1.014-14.888,3.021-9.56-7.139-21.137-11.021-33.112-11.021s-23.552,3.882-33.112,11.021c-4.782-2.007-9.77-3.021-14.888-3.021-10.215,0-19.771,3.885-27.055,10.84-4.06-1.87-8.442-2.84-12.945-2.84-17.369,0-31.5,14.131-31.5,31.5v0.501h-0.463c-4.151,0-8.055,1.63-10.991,4.59-2.943,2.966-4.547,6.893-4.515,11.057 0.745,95.035 14.698,144.994 28.192,193.308 12.92,46.257 26.279,94.088 27.657,182.898 0.198,12.762 10.719,23.146 23.454,23.146h112.332c12.733,0 23.255-10.383 23.453-23.146 1.378-88.812 14.737-136.643 27.657-182.9 13.494-48.313 27.447-98.271 28.192-193.307 0.033-4.159-1.571-8.083-4.515-11.049zm-251.26,10.558c0.102-0.104 0.218-0.155 0.345-0.155l15.994-.001c4.669,0 8.468,3.811 8.468,8.5 0,12.958 10.542,23.5 23.5,23.5s23.5-10.542 23.5-23.505c0-4.685 3.781-8.495 8.429-8.495h16.026c4.712,0 8.545,3.823 8.545,8.522v50.708c-2.313,0.748-4.298,1.589-6.135,2.375-4.43,1.896-7.929,3.395-15.732,3.395-7.803,0-11.302-1.498-15.73-3.395-5.041-2.158-10.756-4.605-21.636-4.605-10.874,0-16.585,2.447-21.624,4.606-4.425,1.896-7.92,3.394-15.717,3.394-2.026,0-3.838-0.11-5.516-0.323-1.66-18.824-2.689-39.914-2.879-64.146-0.001-0.139 0.054-0.265 0.162-0.375zm213.136,189.763c-13.176,47.174-26.801,95.954-28.208,186.701-0.072,4.621-3.865,8.38-8.455,8.38h-112.332c-4.591,0-8.384-3.759-8.455-8.379-1.408-90.747-15.032-139.527-28.208-186.701-9.232-33.056-18.122-64.893-23.234-110.048 1.282,0.079 2.6,0.128 3.989,0.128 10.875,0 16.586-2.447 21.625-4.606 4.425-1.896 7.92-3.394 15.716-3.394 7.804,0 11.302,1.498 15.731,3.395 5.041,2.159 10.756,4.605 21.635,4.605 10.88,0 16.595-2.447 21.637-4.605 0.078-0.033 0.153-0.065 0.23-0.098v85.203c0,12.958 10.542,23.5 23.5,23.5s23.5-10.542 23.5-23.5v-16c0-4.143-3.357-7.5-7.5-7.5s-7.5,3.357-7.5,7.5v16c0,4.687-3.813,8.5-8.5,8.5s-8.5-3.813-8.5-8.5v-151.978c0-12.97-10.562-23.522-23.545-23.522h-16.026c-12.919,0-23.429,10.54-23.429,23.5 0,4.687-3.813,8.5-8.5,8.5s-8.5-3.813-8.5-8.505c0-12.955-10.527-23.495-23.468-23.495h-0.532v-0.5c0-9.098 7.402-16.5 16.5-16.5 3.534,0 6.958,1.18 9.9,3.411 1.593,1.208 3.599,1.727 5.58,1.451 1.979-0.279 3.765-1.337 4.96-2.938 4.713-6.307 11.842-9.924 19.56-9.924 4.178,0 8.266,1.138 12.15,3.38 2.817,1.627 6.358,1.253 8.773-0.926 7.475-6.741 17.092-10.454 27.077-10.454s19.602,3.713 27.075,10.454c2.416,2.179 5.956,2.553 8.773,0.926 3.885-2.242 7.974-3.38 12.151-3.38 7.718,0 14.847,3.617 19.56,9.925 1.195,1.601 2.981,2.658 4.96,2.938 1.983,0.277 3.987-0.243 5.58-1.451 2.942-2.231 6.366-3.411 9.9-3.411 9.098,0 16.5,7.402 16.5,16.5v0.499h-0.476c-12.97,0-23.523,10.542-23.523,23.5v16c0,4.143 3.357,7.5 7.5,7.5s7.5-3.357 7.5-7.5v-16c0-4.687 3.824-8.5 8.524-8.5h15.922c0.131,0 0.252,0.055 0.359,0.164 0.109,0.109 0.164,0.233 0.163,0.366-0.19,24.224-1.218,45.307-2.877,64.127-1.722,0.226-3.583,0.343-5.666,0.343-7.788,0-11.279-1.497-15.699-3.394-0.239-0.103-0.484-0.206-0.727-0.31v-4.796c0-4.143-3.357-7.5-7.5-7.5s-7.5,3.357-7.5,7.5v9.267c-0.04,0.452-0.042,0.902 0,1.345v5.388c0,4.687-3.813,8.5-8.5,8.5s-8.5-3.813-8.5-8.5v-64c0-12.958-10.543-23.5-23.502-23.5-6.274,0-12.172,2.433-16.606,6.85-4.446,4.428-6.895,10.325-6.894,16.604l.001,61.953c-0.002,0.072 0,0.144 0,0.216l.002,41.875c0,4.143 3.358,7.5 7.5,7.5 4.143,0 7.5-3.358 7.5-7.5l-.001-32.767c1.846,0.176 3.77,0.269 5.814,0.269 4.939,0 8.805-0.508 12.033-1.263 2.741,9.94 11.856,17.263 22.654,17.263 11.318,0 20.792-8.043 23.009-18.713 4.115,1.484 9.218,2.713 16.917,2.713 1.443,0 2.81-0.052 4.139-0.137-5.113,45.159-14.003,76.998-23.236,110.056zm-55.516-124.919c-2.322,0-4.216-0.146-5.814-0.362l-.001-56.185c0-2.262 0.88-4.384 2.479-5.976 1.604-1.597 3.743-2.477 6.023-2.477 4.687,0 8.5,3.813 8.5,8.5v54.896c-2.87,0.967-6.117,1.604-11.187,1.604z" fill="#ffc01f"/>
    <path d="m271.5,416h-80c-4.143,0-7.5,3.357-7.5,7.5s3.357,7.5 7.5,7.5h80c4.143,0 7.5-3.357 7.5-7.5s-3.357-7.5-7.5-7.5z" fill="#ffc01f"/>
  </g>
</svg>
