<?xml version="1.0" encoding="iso-8859-1"?>
<!-- Generator: Adobe Illustrator 19.1.0, SVG Export Plug-In . SVG Version: 6.00 Build 0)  -->
<svg xmlns="http://www.w3.org/2000/svg" xmlns:xlink="http://www.w3.org/1999/xlink" version="1.1" id="Capa_1" x="0px" y="0px" viewBox="0 0 508.82 508.82" style="enable-background:new 0 0 508.82 508.82;" xml:space="preserve" width="512px" height="512px">
<g>
	<g>
		<g>
			<circle cx="254.41" cy="66.275" r="14.965" fill="#FFFFFF"/>
			<path d="M254.41,508.82C114.378,508.82,0,394.442,0,254.41S114.378,0,254.41,0     s254.41,113.309,254.41,253.341S394.442,508.82,254.41,508.82z M254.41,31C131.481,31,32.069,130.412,32.069,253.341     s99.412,222.342,222.342,222.342s222.341-99.412,222.341-222.342C476.752,131.481,377.339,31,254.41,31z" fill="#FFFFFF"/>
			<circle cx="254.41" cy="441.476" r="14.965" fill="#FFFFFF"/>
			<circle cx="441.476" cy="253.341" r="14.965" fill="#FFFFFF"/>
			<circle cx="67.344" cy="253.341" r="14.965" fill="#FFFFFF"/>
		</g>
		<path d="M249.065,286.479c-4.276,0-8.552-1.069-11.758-4.276l-51.31-53.447    c-6.414-6.414-6.414-16.034,0-22.448s16.034-6.414,22.448,0l40.62,40.62l94.068-94.068c6.414-6.414,16.034-6.414,22.448,0    c6.414,6.414,6.414,16.034,0,22.448L260.824,281.134C257.617,284.341,253.341,286.478,249.065,286.479z" fill="#FFFFFF"/>
	</g>
</g>
<g>
</g>
<g>
</g>
<g>
</g>
<g>
</g>
<g>
</g>
<g>
</g>
<g>
</g>
<g>
</g>
<g>
</g>
<g>
</g>
<g>
</g>
<g>
</g>
<g>
</g>
<g>
</g>
<g>
</g>
</svg>
