<?xml version="1.0" encoding="iso-8859-1"?>
<!-- Generator: Adobe Illustrator 16.0.0, SVG Export Plug-In . SVG Version: 6.00 Build 0)  -->
<!DOCTYPE svg PUBLIC "-//W3C//DTD SVG 1.1//EN" "http://www.w3.org/Graphics/SVG/1.1/DTD/svg11.dtd">
<svg xmlns="http://www.w3.org/2000/svg" xmlns:xlink="http://www.w3.org/1999/xlink" version="1.1" id="Capa_1" x="0px" y="0px" width="512px" height="512px" viewBox="0 0 612 612" style="enable-background:new 0 0 612 612;" xml:space="preserve">
<g>
	<path d="M597.656,4.781H14.344C6.417,4.781,0,11.207,0,19.125v459c0,7.918,6.417,14.344,14.344,14.344H344.25   c7.928,0,14.344-6.426,14.344-14.344s-6.416-14.344-14.344-14.344H229.5v-38.25c0-7.918-6.417-14.344-14.344-14.344   s-14.344,6.426-14.344,14.344v38.25H28.688v-229.5h172.125v76.5c0,7.918,6.417,14.344,14.344,14.344s14.344-6.426,14.344-14.344   v-19.125h181.688c7.928,0,14.344-6.426,14.344-14.344s-6.416-14.344-14.344-14.344H229.5V90.844   c0-7.918-6.417-14.344-14.344-14.344s-14.344,6.426-14.344,14.344v114.75H28.688V33.469h554.625v229.5h-76.5v-38.25   c0-7.918-6.416-14.344-14.344-14.344s-14.344,6.426-14.344,14.344v52.594c0,7.918,6.416,14.344,14.344,14.344h90.844v286.875H459   v-95.625c0-7.918-6.416-14.344-14.344-14.344s-14.344,6.426-14.344,14.344v109.969c0,7.918,6.416,14.344,14.344,14.344h153   c7.928,0,14.344-6.426,14.344-14.344V19.125C612,11.207,605.584,4.781,597.656,4.781z" fill="#FFFFFF"/>
</g>
<g>
</g>
<g>
</g>
<g>
</g>
<g>
</g>
<g>
</g>
<g>
</g>
<g>
</g>
<g>
</g>
<g>
</g>
<g>
</g>
<g>
</g>
<g>
</g>
<g>
</g>
<g>
</g>
<g>
</g>
</svg>
