<?xml version="1.0" encoding="iso-8859-1"?>
<!-- Generator: Adobe Illustrator 17.1.0, SVG Export Plug-In . SVG Version: 6.00 Build 0)  -->
<!DOCTYPE svg PUBLIC "-//W3C//DTD SVG 1.1//EN" "http://www.w3.org/Graphics/SVG/1.1/DTD/svg11.dtd">
<svg xmlns="http://www.w3.org/2000/svg" xmlns:xlink="http://www.w3.org/1999/xlink" version="1.1" id="Capa_1" x="0px" y="0px" viewBox="0 0 512.034 512.034" style="enable-background:new 0 0 512.034 512.034;" xml:space="preserve" width="512px" height="512px">
<g>
	<path class = "karaoke-icon" d="M512.034,111.924c0-29.896-11.642-58.002-32.782-79.142C458.112,11.642,430.005,0,400.109,0   c-29.896,0-58.003,11.642-79.143,32.782c-30.191,30.191-51.172,72.659-55.946,112.54c-0.281,0.231-0.553,0.475-0.803,0.746   L8.516,423.078c-11.688,12.661-11.299,32.124,0.886,44.308l35.246,35.246c6.255,6.255,14.427,9.401,22.613,9.401   c7.76,0,15.533-2.828,21.695-8.515l277.011-255.703c0.368-0.339,0.695-0.712,0.989-1.108c39.613-4.942,82.866-26.21,112.296-55.641   C500.392,169.927,512.034,141.821,512.034,111.924z M467.938,44.096c18.118,18.117,28.096,42.206,28.096,67.828   c0,22.937-8.001,44.641-22.675,61.937l-16.718-16.718c-3.124-3.125-8.189-3.125-11.313,0c-3.125,3.124-3.125,8.189,0,11.313   l16.808,16.809c-27.754,25.1-66.232,42.696-100.963,45.992l-80.628-80.628c3.273-34.457,20.956-72.848,46.222-100.733l95.95,95.95   c1.562,1.562,3.609,2.343,5.657,2.343s4.095-0.781,5.657-2.343c3.125-3.124,3.125-8.189,0-11.313l-95.857-95.857   C355.468,24.001,377.172,16,400.109,16C425.731,16,449.82,25.978,467.938,44.096z M78.103,491.761   c-6.328,5.841-16.053,5.646-22.142-0.442l-35.246-35.246c-6.089-6.089-6.283-15.814-0.442-22.142l250.055-270.893l78.668,78.668   L78.103,491.761z" fill="#FFFFFF"/>
	<path class = "karaoke-icon" d="M247.481,230.628c-4.531,4.531-7.026,10.555-7.026,16.962c0,3.639,0.807,7.154,2.333,10.343l-23.57,23.57   c-3.125,3.124-3.125,8.189,0,11.313c1.562,1.562,3.609,2.343,5.657,2.343s4.095-0.781,5.657-2.343l23.597-23.597   c3.255,1.548,6.78,2.348,10.315,2.348c6.142,0,12.286-2.338,16.962-7.014v0c9.353-9.353,9.353-24.572,0-33.925   c-4.531-4.531-10.555-7.026-16.962-7.026S252.012,226.097,247.481,230.628z M270.092,253.238c-3.115,3.115-8.183,3.115-11.297,0   c-1.509-1.509-2.34-3.515-2.34-5.648s0.831-4.14,2.34-5.648s3.515-2.34,5.648-2.34s4.14,0.831,5.649,2.34   C273.206,245.056,273.206,250.124,270.092,253.238z" fill="#FFFFFF"/>
</g>
<g>
</g>
<g>
</g>
<g>
</g>
<g>
</g>
<g>
</g>
<g>
</g>
<g>
</g>
<g>
</g>
<g>
</g>
<g>
</g>
<g>
</g>
<g>
</g>
<g>
</g>
<g>
</g>
<g>
</g>
</svg>
