<?xml version="1.0" encoding="iso-8859-1"?>
<!-- Generator: Adobe Illustrator 19.0.0, SVG Export Plug-In . SVG Version: 6.00 Build 0)  -->
<svg xmlns="http://www.w3.org/2000/svg" xmlns:xlink="http://www.w3.org/1999/xlink" version="1.1" id="Layer_1" x="0px" y="0px" viewBox="0 0 512 512" style="enable-background:new 0 0 512 512;" xml:space="preserve" width="512px" height="512px">
<g>
	<g>
		<g>
			<rect x="55.864" y="416.142" width="16.01" height="15.672" fill="#ffc01f"/>
			<rect x="55.864" y="448.165" width="16.01" height="15.672" fill="#ffc01f"/>
			<rect x="440.12" y="416.142" width="16.011" height="15.672" fill="#ffc01f"/>
			<rect x="440.12" y="448.165" width="16.011" height="15.672" fill="#ffc01f"/>
			<rect x="55.864" y="288.054" width="16.01" height="15.672" fill="#ffc01f"/>
			<rect x="55.864" y="320.076" width="16.01" height="15.672" fill="#ffc01f"/>
			<rect x="440.12" y="288.054" width="16.011" height="15.672" fill="#ffc01f"/>
			<rect x="440.12" y="320.076" width="16.011" height="15.672" fill="#ffc01f"/>
			<rect x="119.908" y="408.139" width="112.072" height="15.672" fill="#ffc01f"/>
			<rect x="175.95" y="440.162" width="32.021" height="15.672" fill="#ffc01f"/>
			<rect x="207.972" y="456.167" width="32.021" height="15.672" fill="#ffc01f"/>
			<rect x="280.019" y="424.145" width="40.025" height="15.672" fill="#ffc01f"/>
			<rect x="336.05" y="448.165" width="32.021" height="15.672" fill="#ffc01f"/>
			<rect x="368.072" y="432.148" width="24.016" height="15.672" fill="#ffc01f"/>
			<rect x="111.905" y="312.073" width="16.01" height="15.672" fill="#ffc01f"/>
			<rect x="127.911" y="296.056" width="112.072" height="15.672" fill="#ffc01f"/>
			<rect x="239.994" y="280.051" width="16.01" height="15.672" fill="#ffc01f"/>
			<rect x="256" y="328.079" width="96.067" height="15.672" fill="#ffc01f"/>
			<rect x="344.053" y="296.056" width="32.021" height="15.672" fill="#ffc01f"/>
			<rect x="376.075" y="312.073" width="32.021" height="15.672" fill="#ffc01f"/>
			<rect x="71.878" y="15.876" width="64.044" height="15.672" fill="#ffc01f"/>
			<rect x="223.978" y="15.876" width="64.044" height="15.672" fill="#ffc01f"/>
			<rect x="376.075" y="15.876" width="64.044" height="15.672" fill="#ffc01f"/>
			<rect x="71.878" y="224.009" width="16.011" height="15.672" fill="#ffc01f"/>
			<rect x="95.889" y="224.009" width="16.011" height="15.672" fill="#ffc01f"/>
			<rect x="119.908" y="224.009" width="16.011" height="15.672" fill="#ffc01f"/>
			<rect x="223.978" y="224.009" width="16.011" height="15.672" fill="#ffc01f"/>
			<rect x="247.997" y="224.009" width="16.011" height="15.672" fill="#ffc01f"/>
			<rect x="272.006" y="224.009" width="16.011" height="15.672" fill="#ffc01f"/>
			<rect x="424.114" y="224.009" width="16.011" height="15.672" fill="#ffc01f"/>
			<rect x="400.095" y="224.009" width="16.011" height="15.672" fill="#ffc01f"/>
			<rect x="376.075" y="224.009" width="16.011" height="15.672" fill="#ffc01f"/>
			<path d="M47.692,215.67h0.001h112.413v32.19h15.672v-56.037c0-30.69-19.466-57.728-48.032-67.746V39.892H80.052v84.185     c-28.566,10.018-48.032,37.056-48.032,67.746v32.021h15.672V215.67z M95.724,55.564h16.35v16.35h-16.35V55.564z M47.693,191.824     c0-25.603,17.334-47.955,42.153-54.356l5.879-1.516V87.585h16.35v48.367l5.879,1.516c24.819,6.4,42.153,28.752,42.153,54.356     v8.175H47.693V191.824z" fill="#ffc01f"/>
			<path d="M199.792,215.67h0.001h112.413v32.19h15.672v-56.037c0-30.69-19.466-57.728-48.032-67.746V39.892h-47.693v84.185     c-28.566,10.018-48.032,37.056-48.032,67.746v56.037h15.672V215.67z M247.826,55.564h16.35v16.35h-16.35V55.564z      M199.793,191.824c0-25.603,17.334-47.955,42.153-54.356l5.879-1.516V87.585h16.35v48.367l5.879,1.516     c24.818,6.4,42.153,28.752,42.153,54.356v8.175H199.793V191.824z" fill="#ffc01f"/>
			<path d="M351.893,215.67h0.001h112.413v8.174h15.672v-32.021c0-30.69-19.466-57.728-48.032-67.746V39.892h-47.693v84.185     c-28.566,10.018-48.032,37.056-48.032,67.746v56.037h15.672V215.67z M399.926,55.564h16.35v16.35h-16.35V55.564z      M351.894,191.824c0-25.603,17.334-47.955,42.153-54.356l5.879-1.516V87.585h16.35v48.367l5.879,1.516     c24.819,6.4,42.153,28.752,42.153,54.356v8.175H351.894V191.824z" fill="#ffc01f"/>
			<rect x="63.877" y="175.981" width="40.025" height="15.672" fill="#ffc01f"/>
			<rect x="215.975" y="175.981" width="40.025" height="15.672" fill="#ffc01f"/>
			<rect x="368.072" y="175.981" width="40.025" height="15.672" fill="#ffc01f"/>
			<path d="M512,368.039V256.036h-16.01v-24.016h-47.693v24.016H63.704v-24.016H16.01v24.016H0v112.004h16.01v16.081H0v112.004h512     V384.12h-16.01v-16.081H512z M463.969,247.691h16.35v8.345h-16.35V247.691z M31.682,247.691h16.35v8.345h-16.35V247.691z      M496.328,399.792v32.361h-16.18v15.672h16.18v32.628H15.672v-8.613h16.18v-15.672h-16.18v-56.376H496.328z M31.682,384.12     v-16.081h16.35v16.081H31.682z M63.704,384.12v-16.081h96.402v16.081H63.704z M175.777,384.12v-16.081h8.345v16.081H175.777z      M199.793,384.12v-16.081h112.413v16.081H199.793z M327.878,384.12v-16.081h8.345v16.081H327.878z M351.894,384.12v-16.081     h96.403v16.081H351.894z M463.969,384.12v-16.081h16.35v16.081H463.969z M15.672,352.367v-56.644h16.18v-15.672h-16.18v-8.345     h480.657v48.371h-16.18v15.672h16.18v16.618H15.672z" fill="#ffc01f"/>
		</g>
	</g>
</g>
<g>
</g>
<g>
</g>
<g>
</g>
<g>
</g>
<g>
</g>
<g>
</g>
<g>
</g>
<g>
</g>
<g>
</g>
<g>
</g>
<g>
</g>
<g>
</g>
<g>
</g>
<g>
</g>
<g>
</g>
</svg>
