<?xml version="1.0" encoding="iso-8859-1"?>
<!-- Generator: Adobe Illustrator 19.0.0, SVG Export Plug-In . SVG Version: 6.00 Build 0)  -->
<svg xmlns="http://www.w3.org/2000/svg" xmlns:xlink="http://www.w3.org/1999/xlink" version="1.1" id="Layer_1" x="0px" y="0px" viewBox="0 0 475.1 475.1" style="enable-background:new 0 0 475.1 475.1;" xml:space="preserve" width="512px" height="512px">
<g>
	<g>
		<path d="M249.5,268.7v-0.1c36,0,69.8-14.2,95.2-39.9c25.2-25.5,39.1-59.2,39.1-94.8c0-35.4-13.9-68.7-39.2-93.8    C319.4,15,285.7,0.8,249.6,0c-0.1,0-0.1,0-0.2,0h-97.5c-4.1,0-7.5,3.4-7.5,7.5v246.2H98.8c-4.1,0-7.5,3.4-7.5,7.5s3.4,7.5,7.5,7.5    h45.6v62.6H98.8c-4.1,0-7.5,3.4-7.5,7.5s3.4,7.5,7.5,7.5h45.6v121.3c0,4.1,3.4,7.5,7.5,7.5c4.1,0,7.5-3.4,7.5-7.5V346.3h155.8    c4.1,0,7.5-3.4,7.5-7.5s-3.4-7.5-7.5-7.5H159.4v-62.6H249.5z M159.4,14.9l0.1,0h89.9c67,1.5,119.4,53.7,119.4,118.9    c0,66-53.5,119.7-119.4,119.7h-90V14.9z" fill="#FFFFFF"/>
	</g>
</g>
<g>
</g>
<g>
</g>
<g>
</g>
<g>
</g>
<g>
</g>
<g>
</g>
<g>
</g>
<g>
</g>
<g>
</g>
<g>
</g>
<g>
</g>
<g>
</g>
<g>
</g>
<g>
</g>
<g>
</g>
</svg>
